<svg xmlns="http://www.w3.org/2000/svg" viewBox="0 0 256 256">
  <rect width="256" height="256" fill="#0A0A0A" rx="64"/>
  <path d="M128 24C70.5 24 24 70.5 24 128s46.5 104 104 104 104-46.5 104-104S185.5 24 128 24zm0 184c-44.1 0-80-35.9-80-80s35.9-80 80-80 80 35.9 80 80-35.9 80-80 80zm0-144c-35.3 0-64 28.7-64 64s28.7 64 64 64 64-28.7 64-64-28.7-64-64-64zm0 112c-26.5 0-48-21.5-48-48s21.5-48 48-48 48 21.5 48 48-21.5 48-48 48z" fill="#00FF9D"/>
  <circle cx="128" cy="128" r="32" fill="#00FF9D"/>
  <path d="M128 96v64M96 128h64" stroke="#0A0A0A" stroke-width="8" stroke-linecap="round"/>
</svg>
